<svg width="75" height="33" viewBox="0 0 75 33" fill="none" xmlns="http://www.w3.org/2000/svg">
<path d="M15.9674 5.00024C14.4433 6.95637 11.4001 10.8686 8.16072 15.8827C5.69645 19.6969 4.92641 24.4377 5.00542 24.5438C8.83795 29.6882 17.2723 13.6791 25.26 8.56781C27.7786 6.95614 27.5283 8.12297 26.1775 9.79039C19.7072 17.7773 16.1458 19.5239 14.7874 21.2885C14.2164 22.0302 14.1018 22.6643 14.6039 22.5759C19.6194 21.693 24.6024 13.8617 27.3499 11.5786C33.6661 6.32996 17.3284 25.6161 17.5782 26.3055C20.3055 33.8327 34.1244 14.062 36.7751 10.412C37.2484 9.76016 37.5397 9.13638 37.6289 9.22476C41.4954 13.0555 30.5817 22.2754 30.3268 23.8427C30.0758 25.3861 37.4734 19.7949 48.7693 9.68433C52.8563 6.02618 53.5048 5.21235 52.6739 6.75604C46.2524 18.6864 42.1375 23.2535 42.3848 24.7294C42.786 27.1249 49.7429 19.188 54.7613 13.4787C55.8015 12.2954 52.5108 19.518 50.7267 22.1664C50.0365 23.191 50.1201 23.8427 51.1294 23.5598C58.6948 21.4399 61.5026 15.0224 61.6734 15.1108C66.3064 17.5086 59.8052 24.043 60.1416 25.3186C61.1509 26.0109 64.3673 23.1003 68.2745 18.6784C69.6585 17.3674 69.8267 17.9507 70 19.7301" stroke="#EDF4D7" stroke-width="10" stroke-linecap="round"/>
</svg>
